# xmcd
#
# Track frame offsets: 
#        150
#        24104
#        45368
#        63690
#        93318
#        119141
#        167847
#
# Disc length: 2804 seconds
#
# Revision: 0
# Processed by: cddbd v1.5.1PL2 Copyright (c) Steve Scherf et al.
# Submitted via: ExactAudioCopy v0.95a4
#
DISCID=560af207
DTITLE=Tinsley Ellis - Cafe Classics - Doylestown PA - 8-9-03 - Disc 1
DYEAR=2003
DGENRE=Blues
TTITLE0=I May Be a Highwayman
TTITLE1=All Rumors Are True
TTITLE2=Sugaree
TTITLE3=Mercy, Mercy
TTITLE4=Boogie Man
TTITLE5=Ten Year Day
TTITLE6=Early in the Morning
EXTD=
EXTT0=
EXTT1=
EXTT2=
EXTT3=
EXTT4=
EXTT5=
EXTT6=
PLAYORDER=
